HIERARCHY
ROOT Hips
{
	OFFSET -0.179506 -22.333345 2.821913
	CHANNELS 6 Xposition Yposition Zposition Zrotation Yrotation Xrotation 
	JOINT LeftUpLeg
	{
		OFFSET 6.951974 -9.140623 -0.681533
		CHANNELS 3 Zrotation Yrotation Xrotation
		JOINT LeftLeg
		{
			OFFSET 3.427654 -37.519855 -0.449580
			CHANNELS 3 Zrotation Yrotation Xrotation
			JOINT LeftFoot
			{
				OFFSET -1.359570 -39.796059 -4.369333
				CHANNELS 3 Zrotation Yrotation Xrotation
				JOINT LeftToe
				{
					OFFSET 2.635814 -5.579078 11.928840
					CHANNELS 3 Zrotation Yrotation Xrotation
					End Site
					{
						OFFSET 0.000000 0.000000 0.000000
					}
				}
			}
		}
	}
	JOINT RightUpLeg
	{
		OFFSET -6.767048 -9.052170 -0.431982
		CHANNELS 3 Zrotation Yrotation Xrotation
		JOINT RightLeg
		{
			OFFSET -3.829005 -38.256897 -0.885003
			CHANNELS 3 Zrotation Yrotation Xrotation
			JOINT RightFoot
			{
				OFFSET 1.577377 -39.841461 -4.231180
				CHANNELS 3 Zrotation Yrotation Xrotation
				JOINT RightToe
				{
					OFFSET -2.537174 -4.814398 12.334795
					CHANNELS 3 Zrotation Yrotation Xrotation
					End Site
					{
						OFFSET 0.000000 0.000000 0.000000
					}
				}
			}
		}
	}
	JOINT Spine
	{
		OFFSET -0.253288 10.896323 -2.669631
		CHANNELS 3 Zrotation Yrotation Xrotation
		JOINT Spine1
		{
			OFFSET 0.548704 13.518043 0.109247
			CHANNELS 3 Zrotation Yrotation Xrotation
			JOINT Spine2
			{
				OFFSET 0.145701 5.292222 2.542457
				CHANNELS 3 Zrotation Yrotation Xrotation
				JOINT Neck
				{
					OFFSET -0.277840 21.387037 -4.285703
					CHANNELS 3 Zrotation Yrotation Xrotation
					JOINT Head
					{
						OFFSET 0.515184 6.496960 5.134897
						CHANNELS 3 Zrotation Yrotation Xrotation
						End Site
						{
							OFFSET 0.000000 0.000000 0.000000
						}
					}
				}
				JOINT LeftShoulder
				{
					OFFSET 7.884473 12.174932 -3.408961
					CHANNELS 3 Zrotation Yrotation Xrotation
					JOINT LeftArm
					{
						OFFSET 9.097692 3.046888 -0.886815
						CHANNELS 3 Zrotation Yrotation Xrotation
						JOINT LeftForeArm
						{
							OFFSET 25.961220 -1.277207 -2.745643
							CHANNELS 3 Zrotation Yrotation Xrotation
							JOINT LeftHand
							{
								OFFSET 24.923361 0.898606 -0.117091
								CHANNELS 3 Zrotation Yrotation Xrotation
								End Site
								{
									OFFSET 0.000000 0.000000 0.000000
								}
							}
						}
					}
				}
				JOINT RightShoulder
				{
					OFFSET -8.175920 11.883285 -3.861528
					CHANNELS 3 Zrotation Yrotation Xrotation
					JOINT RightArm
					{
						OFFSET -9.601238 3.255117 -0.914307
						CHANNELS 3 Zrotation Yrotation Xrotation
						JOINT RightForeArm
						{
							OFFSET -25.374195 -1.332924 -2.140099
							CHANNELS 3 Zrotation Yrotation Xrotation
							JOINT RightHand
							{
								OFFSET -25.529810 0.777228 -0.555919
								CHANNELS 3 Zrotation Yrotation Xrotation
								End Site
								{
									OFFSET 0.000000 0.000000 0.000000
								}
							}
						}
					}
				}
			}
		}
	}
}
MOTION
Frames: 10
Frame Time: 0.033333
-0.179506 110.273331 2.821913 178.450118 69.223403 172.937546 0.638091 1.812957 21.030609 -1.547662 -15.227059 3.040708 0.743411 8.644889 -15.797854 0.333725 -0.977150 -0.043838 -0.723724 -2.272079 -18.490312 -0.509542 -13.228511 2.922825 5.012501 -14.181822 -0.968676 2.356298 0.419453 0.056720 -4.150338 -3.992071 10.440324 2.805488 -1.959747 -3.556580 1.455560 -2.904207 6.505972 -1.204763 -7.727603 3.270231 5.860855 -8.023774 -0.892025 -5.489751 -9.819455 -5.212245 -60.095646 -36.020635 22.424276 5.263606 -60.388575 6.639800 3.845305 -10.992103 -4.952407 12.585085 2.203406 -0.728239 54.845101 -3.257038 15.335195 -2.564294 20.133271 5.879914 6.566272 2.691683 1.944362 
2.345640 109.973907 2.637719 178.352955 68.356630 173.009893 1.321455 1.740302 22.389923 -1.357915 -16.046994 2.967471 0.193982 8.557868 -15.215236 0.332561 -0.991130 -0.101995 -0.727852 -2.666762 -19.129844 -0.387744 -13.764859 3.373898 4.814284 -14.610017 -1.286619 2.416040 0.450854 -0.039531 -4.486540 -4.204477 10.078532 2.989772 -2.078239 -3.293960 1.575394 -3.036361 6.521690 -1.011822 -8.002571 3.581208 6.400030 -8.377485 -1.231098 -5.032203 -9.830235 -5.294325 -60.722879 -36.565785 22.967729 5.021649 -62.175259 7.253938 4.096442 -11.364480 -5.399576 12.297616 2.015443 -0.622171 54.341718 -3.464360 14.866855 -2.293738 19.767785 5.983027 6.598451 2.461513 1.681959 
4.507752 109.588577 2.526716 178.868749 67.530050 173.479389 2.311548 1.743961 23.501128 -1.286159 -17.009627 3.272243 -0.205076 8.468597 -15.104815 0.312557 -0.956464 -0.116853 -0.712576 -2.559985 -19.593696 -0.233748 -13.976665 5.195745 4.416905 -14.729008 -1.382693 2.520455 0.470640 -0.110872 -4.426214 -4.582540 9.899440 3.102385 -2.072671 -3.223537 1.764759 -3.196302 6.661134 -1.019500 -8.155034 3.717013 6.605971 -8.501161 -1.690790 -4.683174 -9.803923 -5.214685 -61.142803 -36.545965 23.274863 4.066660 -63.352193 8.756989 3.576453 -11.659943 -5.679622 11.720904 1.918214 -0.560247 53.821036 -3.788800 14.312012 -2.050026 19.805893 6.422420 6.895583 2.636549 1.333132 
6.851731 109.148926 2.224596 -179.782843 66.960800 174.655016 3.445333 1.533121 24.213913 -1.489493 -17.853746 4.851308 -0.400712 8.397399 -15.089584 0.375260 -0.924585 -0.152843 -0.512869 -2.423470 -20.299282 0.055834 -14.512747 8.318969 3.595125 -15.183493 -1.298296 2.541728 0.502537 -0.171249 -4.155867 -4.940536 9.433886 3.399748 -2.108762 -3.056878 1.817735 -3.380340 6.618094 -0.988099 -8.271483 3.970879 6.760560 -8.610445 -2.022964 -4.534511 -9.554106 -4.978960 -61.764808 -36.125460 23.699445 2.387822 -64.430594 11.031067 3.475612 -11.657483 -5.553414 11.362674 1.758531 -0.491684 53.380675 -4.255842 13.776228 -1.770611 19.955153 6.910177 6.845631 2.715362 1.036558 
9.565016 108.700150 2.090886 -178.651098 66.286395 175.513859 4.886962 1.335790 24.814752 -2.028430 -18.700657 7.124389 -0.984325 8.164660 -14.667914 0.464492 -0.873494 -0.200023 -0.339564 -2.060497 -21.090654 0.359132 -14.860688 12.551793 2.516404 -15.402804 -1.428401 2.546595 0.541014 -0.197445 -3.784182 -5.422711 8.999702 3.539677 -2.203301 -3.023486 1.842234 -3.575266 6.607881 -0.700465 -8.359269 4.256137 6.824196 -8.654112 -2.320394 -4.704709 -9.084366 -4.529026 -61.550002 -35.337327 23.867821 -0.456651 -64.889974 14.549247 2.913331 -11.719635 -5.460479 11.102423 1.626278 -0.500486 52.784752 -4.477762 13.321238 -1.515967 20.069165 7.679164 6.853845 2.909762 0.761729 
12.160276 108.283798 2.364773 -177.199165 66.210354 176.411623 6.341157 0.968491 24.835272 -2.970459 -19.211659 10.854060 -1.704766 8.243320 -14.086317 0.602065 -0.876698 -0.283694 -0.110454 -1.622715 -21.822626 0.827872 -15.175714 17.841688 1.306502 -15.279543 -1.964553 2.527177 0.598932 -0.354695 -3.254695 -5.815852 8.509582 3.665394 -2.229952 -2.945671 1.839086 -3.600038 6.733142 -0.566749 -8.224801 4.707239 6.653185 -8.697526 -2.567011 -4.934076 -8.491962 -3.874059 -62.046141 -33.986279 24.153701 -3.514380 -64.455133 18.165126 2.124259 -11.496182 -5.546782 10.726288 1.419982 -0.471606 52.284192 -4.494654 12.350853 -1.750011 20.703554 8.009563 7.197932 2.888460 0.384748 
14.990227 107.968628 2.420398 -176.199995 66.271696 176.749564 7.602545 0.664600 24.149808 -4.162364 -18.971878 15.966960 -2.769751 7.830265 -12.202429 0.723058 -0.872434 -0.304653 0.331734 -1.067752 -22.129684 1.165965 -15.071909 22.643933 -0.090945 -14.774553 -3.259731 2.449360 0.601929 -0.518404 -2.792890 -6.067136 8.013937 3.813502 -2.318492 -2.856229 1.740392 -3.568592 6.568749 -0.408544 -8.303797 5.226681 6.327440 -8.800922 -2.483336 -5.262793 -7.935719 -3.187941 -62.190648 -32.138456 24.153089 -6.599451 -63.047087 21.621410 1.803579 -11.103535 -5.780710 10.509701 1.185201 -0.551589 51.917779 -4.468292 11.610328 -2.168131 21.654351 8.348747 7.196926 2.968112 -0.238722 
17.838007 107.797668 2.482061 -175.570643 66.466343 176.533859 8.932017 0.197606 23.127924 -5.506637 -18.614152 21.702756 -3.876578 7.891821 -9.540592 0.848583 -0.869454 -0.190339 1.064278 -0.218440 -21.881824 1.556785 -14.300075 26.841318 -1.791273 -14.389218 -5.054556 2.367294 0.556928 -0.608457 -2.179523 -6.182169 7.454186 3.919859 -2.595355 -2.461042 1.640056 -3.507614 6.400080 -0.434316 -8.456262 5.977046 6.140678 -8.948463 -2.611602 -5.567396 -7.780167 -2.372379 -62.794577 -30.352305 24.160935 -8.126465 -60.425828 23.711412 1.758249 -10.475019 -5.402890 10.201196 1.361579 -0.343538 52.180061 -4.347066 10.842848 -2.703435 22.066715 8.336962 6.206713 3.168258 -1.443677 
20.683821 107.755264 2.541775 -175.235247 66.863330 176.136511 10.122696 -0.015585 21.384053 -6.832445 -17.663803 27.850311 -5.039508 8.236475 -5.162471 0.902672 -0.894189 -0.141973 2.061152 0.246356 -20.840387 1.868652 -13.461953 29.617021 -3.528203 -14.138962 -6.922818 2.191499 0.531103 -0.736660 -1.541225 -6.080574 7.098423 3.859997 -2.755969 -2.222299 1.550729 -3.378033 6.279654 -0.381759 -8.523420 7.000665 5.940793 -9.055308 -2.649728 -6.183206 -7.666873 -1.581750 -63.352878 -28.241946 23.661366 -9.319625 -56.063798 25.332207 1.987099 -9.830163 -4.419952 9.828478 1.996515 -0.213671 52.798011 -3.675215 10.157838 -2.791632 21.939637 8.697475 4.909667 3.373918 -2.420750 
23.490393 107.843063 2.601704 -175.558114 67.467693 174.550834 11.011362 -0.064756 18.548297 -7.864344 -15.337294 35.400977 -5.702724 8.534999 -0.364885 0.817781 -0.937810 -0.126217 3.130684 0.302375 -18.631935 2.054392 -12.604214 31.292463 -5.310091 -14.387330 -8.677599 1.941700 0.493660 -0.857506 -0.894638 -5.620965 7.186192 3.830032 -2.847566 -1.708554 1.524629 -3.177752 6.105471 -0.599020 -8.919762 7.729927 5.799390 -9.079442 -2.934415 -6.656596 -7.940374 -0.856815 -63.835048 -26.003971 22.870122 -9.937222 -51.709223 26.563308 2.126628 -8.934471 -3.416135 9.374842 3.013861 0.035392 53.872911 -2.924977 9.504602 -3.054441 21.616046 9.139138 4.139335 3.106525 -2.999426 
